#!OML:ASF H:\Pregnant\Project 1\Capture day 1\Session 1\femalepreg.ASF
:FULLY-SPECIFIED
:DEGREES
432
root 4.75142 2.33039 30.074 52.1281 7.92323 279.782
lowerback 5.15167 7.70267 3.01576
upperback -4.31052 11.0352 3.83566
thorax -7.6143 5.4538 1.06289
lowerneck -13.6044 0.769707 1.42004
upperneck 29.5378 -7.01475 24.9
head 13.4545 -0.375358 8.73204
rclavicle -1.04958e-013 -3.02153e-014
rhumerus -42.9562 69.8359 -112.359
rradius 94.3717
rwrist 12.616
rhand -56.3621 -55.416
rfingers 7.12502
rthumb -28.6822 276.766
lclavicle -1.04958e-013 -3.02153e-014
lhumerus 45.771 -53.2285 62.9019
lradius 59.508
lwrist 35.9993
lhand -4.91808 14.2096
lfingers 7.12502
lthumb 20.8721 43.1068
rfemur -50.5817 -5.95651 28.4294
rtibia 90.0399
rfoot 31.8384 12.9751
rtoes 23.2522
lfemur -49.8309 -30.9002 -44.4696
ltibia 133.212
lfoot -3.38969 -17.9232
ltoes -70.492
433
root 4.75191 2.33414 30.0771 52.2699 7.83712 279.777
lowerback 5.30142 7.75258 3.2593
upperback -4.30872 11.1441 3.95334
thorax -7.68015 5.49632 1.02243
lowerneck -13.6535 0.732836 1.33261
upperneck 29.7186 -7.06513 24.7872
head 13.5464 -0.407606 8.71524
rclavicle -6.04305e-014 -1.74931e-014
rhumerus -43.1264 69.9319 -112.609
rradius 94.309
rwrist 12.751
rhand -56.555 -54.3856
rfingers 7.12502
rthumb -28.8665 277.828
lclavicle -6.04305e-014 -1.74931e-014
lhumerus 44.9149 -53.0395 63.4945
lradius 60.2418
lwrist 35.5837
lhand -4.59439 14.5096
lfingers 7.12502
lthumb 21.1831 43.3723
rfemur -50.5588 -5.91276 28.2149
rtibia 89.7932
rfoot 31.5972 12.9836
rtoes 22.9798
lfemur -50.0184 -31.0022 -44.4049
ltibia 133.15
lfoot -3.42607 -17.9979
ltoes -70.4921
434
root 4.75227 2.33796 30.0802 52.409 7.74536 279.785
lowerback 5.44804 7.80203 3.49308
upperback -4.30204 11.2514 4.0662
thorax -7.73943 5.53826 0.98315
lowerneck -13.7165 0.698089 1.23135
upperneck 29.8906 -7.11608 24.7038
head 13.6407 -0.438753 8.71426
rclavicle -1.59028e-014 5.24792e-014
rhumerus -43.2725 70.0414 -112.834
rradius 94.2473
rwrist 12.8615
rhand -56.7339 -53.2063
rfingers 7.12502
rthumb -29.0373 279.036
lclavicle -1.59028e-014 5.24792e-014
lhumerus 44.2097 -52.8646 63.9129
lradius 60.9833
lwrist 35.3059
lhand -4.34335 14.7779
lfingers 7.12502
lthumb 21.4242 43.6133
rfemur -50.5351 -5.86424 27.9848
rtibia 89.5749
rfoot 31.3422 12.9905
rtoes 22.6676
lfemur -50.2104 -31.0751 -44.3353
ltibia 133.083
lfoot -3.47687 -18.0874
ltoes -70.4925
435
root 4.75244 2.34189 30.0832 52.5461 7.65463 279.803
lowerback 5.59045 7.85017 3.72284
upperback -4.29051 11.3562 4.17564
thorax -7.79074 5.57908 0.943749
lowerneck -13.7818 0.663318 1.12682
upperneck 30.0403 -7.16592 24.6373
head 13.7274 -0.46918 8.71919
rclavicle -1.59028e-014 -5.88403e-014
rhumerus -43.398 70.1699 -113.032
rradius 94.1874
rwrist 12.9477
rhand -56.896 -51.8721
rfingers 7.12502
rthumb -29.1921 280.397
lclavicle -1.59028e-014 -5.88403e-014
lhumerus 43.6348 -52.703 64.1811
lradius 61.7328
lwrist 35.152
lhand -4.17943 15.0128
lfingers 7.12502
lthumb 21.5816 43.8302
rfemur -50.5124 -5.8118 27.7466
rtibia 89.3848
rfoot 31.0814 12.9957
rtoes 22.33
lfemur -50.4085 -31.1276 -44.2585
ltibia 133.018
lfoot -3.53942 -18.1891
ltoes -70.493
436
root 4.75238 2.346 30.086 52.6821 7.57054 279.831
lowerback 5.72789 7.89572 3.95357
upperback -4.27456 11.4573 4.28297
thorax -7.83344 5.61799 0.90326
lowerneck -13.8416 0.627275 1.02786
upperneck 30.1609 -7.21248 24.5738
head 13.7997 -0.49883 8.72069
rclavicle 9.54166e-015 1.90833e-014
rhumerus -43.5081 70.3204 -113.205
rradius 94.1278
rwrist 13.0155
rhand -57.0384 -50.39
rfingers 7.12502
rthumb -29.3281 281.903
lclavicle 9.54166e-015 1.90833e-014
lhumerus 43.1614 -52.5504 64.3314
lradius 62.4895
lwrist 35.1028
lhand -4.10935 15.2122
lfingers 7.12502
lthumb 21.649 44.0219
rfemur -50.4923 -5.7558 27.5066
rtibia 89.2228
rfoot 30.8218 12.9993
rtoes 21.9839
lfemur -50.615 -31.1665 -44.1714
ltibia 132.956
lfoot -3.612 -18.3013
ltoes -70.4938
437
root 4.75208 2.35033 30.0883 52.8178 7.49728 279.866
lowerback 5.86006 7.93732 4.18927
upperback -4.25491 11.5533 4.38922
thorax -7.86756 5.65413 0.860884
lowerneck -13.8919 0.589676 0.939272
upperneck 30.2516 -7.25382 24.5025
head 13.8548 -0.527376 8.71275
rclavicle -2.8625e-014 -8.42847e-014
rhumerus -43.6055 70.4923 -113.359
rradius 94.0654
rwrist 13.0749
rhand -57.1601 -48.7844
rfingers 7.12502
rthumb -29.4444 283.529
lclavicle -2.8625e-014 -8.42847e-014
lhumerus 42.7568 -52.4004 64.4005
lradius 63.2512
lwrist 35.1357
lhand -4.13111 15.3742
lfingers 7.12502
lthumb 21.6281 44.1863
rfemur -50.4768 -5.69588 27.2703
rtibia 89.0889
rfoot 30.5694 13.001
rtoes 21.6458
lfemur -50.8317 -31.1961 -44.0708
ltibia 132.903
lfoot -3.69412 -18.4226
ltoes -70.4949
438
root 4.7515 2.35494 30.0902 52.9531 7.43514 279.91
lowerback 5.98728 7.97423 4.42994
upperback -4.23209 11.6431 4.49456
thorax -7.89392 5.68703 0.816869
lowerneck -13.9334 0.550847 0.861705
upperneck 30.3165 -7.2893 24.4192
head 13.894 -0.554585 8.6938
rclavicle 1.36764e-013 3.02153e-014
rhumerus -43.6903 70.6812 -113.499
rradius 93.9976
rwrist 13.1376
rhand -57.2608 -47.0907
rfingers 7.12502
rthumb -29.5405 285.24
lclavicle 1.36764e-013 3.02153e-014
lhumerus 42.3909 -52.2465 64.4231
lradius 64.0136
lwrist 35.2276
lhand -4.23472 15.4982
lfingers 7.12502
lthumb 21.5285 44.3217
rfemur -50.4667 -5.63069 27.0391
rtibia 88.9835
rfoot 30.3283 13.0002
rtoes 21.3293
lfemur -51.0596 -31.2154 -43.9551
ltibia 132.858
lfoot -3.78694 -18.5532
ltoes -70.4964
439
root 4.75068 2.35989 30.0918 53.0871 7.38208 279.961
lowerback 6.11098 8.00649 4.67332
upperback -4.20639 11.7267 4.59863
thorax -7.914 5.7167 0.771798
lowerneck -13.9686 0.511302 0.793026
upperneck 30.361 -7.31959 24.3255
head 13.9206 -0.580458 8.66584
rclavicle -1.24042e-013 -3.18055e-015
rhumerus -43.7616 70.8796 -113.628
rradius 93.9228
rwrist 13.2138
rhand -57.3419 -45.3554
rfingers 7.12502
rthumb -29.6178 286.989
lclavicle -1.24042e-013 -3.18055e-015
lhumerus 42.0396 -52.0831 64.4289
lradius 64.7715
lwrist 35.3561
lhand -4.40554 15.5844
lfingers 7.12502
lthumb 21.3645 44.4266
rfemur -50.4617 -5.55823 26.8118
rtibia 88.907
rfoot 30.1008 12.9965
rtoes 21.0402
lfemur -51.2973 -31.22 -43.8244
ltibia 132.819
lfoot -3.89261 -18.6935
ltoes -70.4983
440
root 4.74962 2.36521 30.0931 53.2177 7.33458 280.02
lowerback 6.23313 8.03467 4.91555
upperback -4.17791 11.8045 4.70083
thorax -7.92971 5.74353 0.726671
lowerneck -14.0005 0.471501 0.72871
upperneck 30.3899 -7.34647 24.2292
head 13.9383 -0.605295 8.63393
rclavicle -9.22361e-014 -2.54444e-014
rhumerus -43.8207 71.0802 -113.753
rradius 93.8414
rwrist 13.3088
rhand -57.4045 -43.6199
rfingers 7.12502
rthumb -29.6776 288.735
lclavicle -9.22361e-014 -2.54444e-014
lhumerus 41.6881 -51.9071 64.437
lradius 65.5193
lwrist 35.5036
lhand -4.62742 15.6353
lfingers 7.12502
lthumb 21.1514 44.5015
rfemur -50.4603 -5.47617 26.5861
rtibia 88.8599
rfoot 29.8874 12.9894
rtoes 20.7791
lfemur -51.5414 -31.2049 -43.6809
ltibia 132.785
lfoot -4.01316 -18.8438
ltoes -70.5005
